<mxfile host="app.diagrams.net" modified="2024-05-08T04:03:45.938Z" agent="Mozilla/5.0 (X11; Ubuntu; Linux x86_64; rv:124.0) Gecko/20100101 Firefox/124.0" etag="OMx9QY0jXjU3dp1h-Z4o" version="24.2.1" type="device">
  <diagram id="C5RBs43oDa-KdzZeNtuy" name="Page-1">
    <mxGraphModel dx="2326" dy="1182" grid="1" gridSize="10" guides="1" tooltips="1" connect="1" arrows="1" fold="1" page="1" pageScale="1" pageWidth="827" pageHeight="1169" math="0" shadow="0">
      <root>
        <mxCell id="WIyWlLk6GJQsqaUBKTNV-0" />
        <mxCell id="WIyWlLk6GJQsqaUBKTNV-1" parent="WIyWlLk6GJQsqaUBKTNV-0" />
        <mxCell id="HmHGwsYT_dBOu_55nijM-12" style="edgeStyle=orthogonalEdgeStyle;rounded=0;orthogonalLoop=1;jettySize=auto;html=1;exitX=0.5;exitY=1;exitDx=0;exitDy=0;exitPerimeter=0;entryX=0.5;entryY=0;entryDx=0;entryDy=0;strokeWidth=2;fontSize=12;fontStyle=0;fontColor=#000000;" edge="1" parent="WIyWlLk6GJQsqaUBKTNV-1" source="HmHGwsYT_dBOu_55nijM-0" target="HmHGwsYT_dBOu_55nijM-1">
          <mxGeometry relative="1" as="geometry" />
        </mxCell>
        <mxCell id="HmHGwsYT_dBOu_55nijM-0" value="Начало" style="strokeWidth=2;html=1;shape=mxgraph.flowchart.terminator;whiteSpace=wrap;fontSize=12;fontStyle=0;fontColor=#000000;" vertex="1" parent="WIyWlLk6GJQsqaUBKTNV-1">
          <mxGeometry x="350" y="40" width="100" height="60" as="geometry" />
        </mxCell>
        <mxCell id="HmHGwsYT_dBOu_55nijM-13" style="edgeStyle=orthogonalEdgeStyle;rounded=0;orthogonalLoop=1;jettySize=auto;html=1;exitX=0.5;exitY=1;exitDx=0;exitDy=0;entryX=0.5;entryY=0;entryDx=0;entryDy=0;strokeWidth=2;fontSize=12;fontStyle=0;fontColor=#000000;" edge="1" parent="WIyWlLk6GJQsqaUBKTNV-1" source="HmHGwsYT_dBOu_55nijM-1" target="HmHGwsYT_dBOu_55nijM-2">
          <mxGeometry relative="1" as="geometry" />
        </mxCell>
        <mxCell id="HmHGwsYT_dBOu_55nijM-1" value="&lt;div style=&quot;background-color: rgb(255, 255, 255); font-family: &amp;quot;Droid Sans Mono&amp;quot;, &amp;quot;monospace&amp;quot;, monospace; font-size: 12px; line-height: 19px; white-space: pre;&quot;&gt;&lt;div style=&quot;font-size: 12px;&quot;&gt;&lt;span style=&quot;font-size: 12px;&quot;&gt;Вывод&lt;/span&gt;&lt;/div&gt;&lt;div style=&quot;font-size: 12px;&quot;&gt;&lt;span style=&quot;font-size: 12px;&quot;&gt;сообщения о&lt;/span&gt;&lt;/div&gt;&lt;div style=&quot;font-size: 12px;&quot;&gt;&lt;span style=&quot;font-size: 12px;&quot;&gt;вводе числа&lt;/span&gt;&lt;/div&gt;&lt;/div&gt;" style="shape=parallelogram;perimeter=parallelogramPerimeter;whiteSpace=wrap;html=1;fixedSize=1;strokeWidth=2;fontSize=12;fontStyle=0;fontColor=#000000;" vertex="1" parent="WIyWlLk6GJQsqaUBKTNV-1">
          <mxGeometry x="320" y="110" width="160" height="60" as="geometry" />
        </mxCell>
        <mxCell id="HmHGwsYT_dBOu_55nijM-36" style="edgeStyle=orthogonalEdgeStyle;rounded=0;orthogonalLoop=1;jettySize=auto;html=1;exitX=0.5;exitY=1;exitDx=0;exitDy=0;entryX=0.5;entryY=0;entryDx=0;entryDy=0;strokeWidth=2;fontSize=12;fontStyle=0;fontColor=#000000;" edge="1" parent="WIyWlLk6GJQsqaUBKTNV-1" source="HmHGwsYT_dBOu_55nijM-2">
          <mxGeometry relative="1" as="geometry">
            <mxPoint x="400" y="290" as="targetPoint" />
          </mxGeometry>
        </mxCell>
        <mxCell id="HmHGwsYT_dBOu_55nijM-2" value="&lt;div style=&quot;background-color: rgb(255, 255, 255); font-family: &amp;quot;Droid Sans Mono&amp;quot;, &amp;quot;monospace&amp;quot;, monospace; font-size: 12px; line-height: 19px; white-space: pre;&quot;&gt;&lt;div style=&quot;font-size: 12px;&quot;&gt;&lt;span style=&quot;font-size: 12px;&quot;&gt;Ввод числа&lt;/span&gt;&lt;/div&gt;&lt;/div&gt;" style="shape=parallelogram;perimeter=parallelogramPerimeter;whiteSpace=wrap;html=1;fixedSize=1;strokeWidth=2;fontSize=12;fontStyle=0;fontColor=#000000;" vertex="1" parent="WIyWlLk6GJQsqaUBKTNV-1">
          <mxGeometry x="340" y="210" width="120" height="60" as="geometry" />
        </mxCell>
        <mxCell id="HmHGwsYT_dBOu_55nijM-28" style="edgeStyle=orthogonalEdgeStyle;rounded=0;orthogonalLoop=1;jettySize=auto;html=1;exitX=0.5;exitY=1;exitDx=0;exitDy=0;entryX=0.5;entryY=0;entryDx=0;entryDy=0;strokeWidth=2;fontSize=12;fontStyle=0;fontColor=#000000;" edge="1" parent="WIyWlLk6GJQsqaUBKTNV-1" source="HmHGwsYT_dBOu_55nijM-3" target="HmHGwsYT_dBOu_55nijM-27">
          <mxGeometry relative="1" as="geometry" />
        </mxCell>
        <mxCell id="HmHGwsYT_dBOu_55nijM-3" value="&lt;div style=&quot;background-color: rgb(255, 255, 255); font-family: &amp;quot;Droid Sans Mono&amp;quot;, &amp;quot;monospace&amp;quot;, monospace; font-size: 12px; line-height: 19px; white-space: pre;&quot;&gt;&lt;div style=&quot;font-size: 12px;&quot;&gt;&lt;span style=&quot;font-size: 12px;&quot;&gt;Вывод символа&lt;/span&gt;&lt;/div&gt;&lt;div style=&quot;font-size: 12px;&quot;&gt;&lt;span style=&quot;font-size: 12px;&quot;&gt;&quot;=&quot;&lt;/span&gt;&lt;/div&gt;&lt;/div&gt;" style="shape=parallelogram;perimeter=parallelogramPerimeter;whiteSpace=wrap;html=1;fixedSize=1;strokeWidth=2;fontSize=12;fontStyle=0;fontColor=#000000;" vertex="1" parent="WIyWlLk6GJQsqaUBKTNV-1">
          <mxGeometry x="320" y="390" width="160" height="60" as="geometry" />
        </mxCell>
        <mxCell id="HmHGwsYT_dBOu_55nijM-31" style="edgeStyle=orthogonalEdgeStyle;rounded=0;orthogonalLoop=1;jettySize=auto;html=1;exitX=0.5;exitY=1;exitDx=0;exitDy=0;entryX=0.5;entryY=0;entryDx=0;entryDy=0;strokeWidth=2;fontSize=12;fontStyle=0;fontColor=#000000;" edge="1" parent="WIyWlLk6GJQsqaUBKTNV-1" source="HmHGwsYT_dBOu_55nijM-4" target="HmHGwsYT_dBOu_55nijM-5">
          <mxGeometry relative="1" as="geometry" />
        </mxCell>
        <mxCell id="HmHGwsYT_dBOu_55nijM-4" value="&lt;div style=&quot;background-color: rgb(255, 255, 255); font-family: &amp;quot;Droid Sans Mono&amp;quot;, &amp;quot;monospace&amp;quot;, monospace; font-size: 12px; line-height: 19px; white-space: pre;&quot;&gt;&lt;div style=&quot;font-size: 12px;&quot;&gt;&lt;span style=&quot;font-size: 12px;&quot;&gt;Вывод числа в&lt;/span&gt;&lt;/div&gt;&lt;div style=&quot;font-size: 12px;&quot;&gt;&lt;span style=&quot;font-size: 12px;&quot;&gt;шестнадцатеричном&lt;/span&gt;&lt;/div&gt;&lt;div style=&quot;font-size: 12px;&quot;&gt;&lt;span style=&quot;font-size: 12px;&quot;&gt;виде&lt;/span&gt;&lt;/div&gt;&lt;/div&gt;" style="shape=parallelogram;perimeter=parallelogramPerimeter;whiteSpace=wrap;html=1;fixedSize=1;strokeWidth=2;fontSize=12;fontStyle=0;fontColor=#000000;" vertex="1" parent="WIyWlLk6GJQsqaUBKTNV-1">
          <mxGeometry x="300" y="550" width="190" height="60" as="geometry" />
        </mxCell>
        <mxCell id="HmHGwsYT_dBOu_55nijM-33" style="edgeStyle=orthogonalEdgeStyle;rounded=0;orthogonalLoop=1;jettySize=auto;html=1;exitX=0.5;exitY=1;exitDx=0;exitDy=0;entryX=0.5;entryY=0;entryDx=0;entryDy=0;strokeWidth=2;fontSize=12;fontStyle=0;fontColor=#000000;" edge="1" parent="WIyWlLk6GJQsqaUBKTNV-1" source="HmHGwsYT_dBOu_55nijM-5" target="HmHGwsYT_dBOu_55nijM-32">
          <mxGeometry relative="1" as="geometry" />
        </mxCell>
        <mxCell id="HmHGwsYT_dBOu_55nijM-5" value="&lt;div style=&quot;background-color: rgb(255, 255, 255); font-family: &amp;quot;Droid Sans Mono&amp;quot;, &amp;quot;monospace&amp;quot;, monospace; font-size: 12px; line-height: 19px; white-space: pre;&quot;&gt;&lt;div style=&quot;font-size: 12px;&quot;&gt;&lt;span style=&quot;font-size: 12px;&quot;&gt;Вывод пробела&lt;/span&gt;&lt;/div&gt;&lt;/div&gt;" style="shape=parallelogram;perimeter=parallelogramPerimeter;whiteSpace=wrap;html=1;fixedSize=1;strokeWidth=2;fontSize=12;fontStyle=0;fontColor=#000000;" vertex="1" parent="WIyWlLk6GJQsqaUBKTNV-1">
          <mxGeometry x="325" y="630" width="150" height="60" as="geometry" />
        </mxCell>
        <mxCell id="HmHGwsYT_dBOu_55nijM-6" value="Вывод справки" style="shape=parallelogram;perimeter=parallelogramPerimeter;whiteSpace=wrap;html=1;fixedSize=1;strokeWidth=2;fontSize=12;fontStyle=0;fontColor=#000000;" vertex="1" parent="WIyWlLk6GJQsqaUBKTNV-1">
          <mxGeometry x="170" y="360" width="120" height="60" as="geometry" />
        </mxCell>
        <mxCell id="HmHGwsYT_dBOu_55nijM-8" value="Конец" style="strokeWidth=2;html=1;shape=mxgraph.flowchart.terminator;whiteSpace=wrap;fontSize=12;fontStyle=0;fontColor=#000000;" vertex="1" parent="WIyWlLk6GJQsqaUBKTNV-1">
          <mxGeometry x="180" y="440" width="100" height="60" as="geometry" />
        </mxCell>
        <mxCell id="HmHGwsYT_dBOu_55nijM-38" style="edgeStyle=orthogonalEdgeStyle;rounded=0;orthogonalLoop=1;jettySize=auto;html=1;exitX=0.5;exitY=1;exitDx=0;exitDy=0;strokeWidth=2;fontSize=12;fontStyle=0;fontColor=#000000;" edge="1" parent="WIyWlLk6GJQsqaUBKTNV-1" source="HmHGwsYT_dBOu_55nijM-11">
          <mxGeometry relative="1" as="geometry">
            <mxPoint x="400" y="180" as="targetPoint" />
            <Array as="points">
              <mxPoint x="400" y="870" />
              <mxPoint x="500" y="870" />
              <mxPoint x="500" y="180" />
            </Array>
          </mxGeometry>
        </mxCell>
        <mxCell id="HmHGwsYT_dBOu_55nijM-11" value="&lt;div style=&quot;background-color: rgb(255, 255, 255); font-family: &amp;quot;Droid Sans Mono&amp;quot;, &amp;quot;monospace&amp;quot;, monospace; font-size: 12px; line-height: 19px; white-space: pre;&quot;&gt;&lt;div style=&quot;font-size: 12px;&quot;&gt;&lt;span style=&quot;font-size: 12px;&quot;&gt;Вывод числа в&lt;/span&gt;&lt;/div&gt;&lt;div style=&quot;font-size: 12px;&quot;&gt;&lt;span style=&quot;font-size: 12px;&quot;&gt;десятичном виде&lt;/span&gt;&lt;/div&gt;&lt;/div&gt;" style="shape=parallelogram;perimeter=parallelogramPerimeter;whiteSpace=wrap;html=1;fixedSize=1;strokeWidth=2;fontSize=12;fontStyle=0;fontColor=#000000;" vertex="1" parent="WIyWlLk6GJQsqaUBKTNV-1">
          <mxGeometry x="320" y="790" width="160" height="60" as="geometry" />
        </mxCell>
        <mxCell id="HmHGwsYT_dBOu_55nijM-20" style="edgeStyle=orthogonalEdgeStyle;rounded=0;orthogonalLoop=1;jettySize=auto;html=1;exitX=0.5;exitY=1;exitDx=0;exitDy=0;entryX=0.5;entryY=0;entryDx=0;entryDy=0;entryPerimeter=0;strokeWidth=2;fontSize=12;fontStyle=0;fontColor=#000000;" edge="1" parent="WIyWlLk6GJQsqaUBKTNV-1" source="HmHGwsYT_dBOu_55nijM-6" target="HmHGwsYT_dBOu_55nijM-8">
          <mxGeometry relative="1" as="geometry" />
        </mxCell>
        <mxCell id="HmHGwsYT_dBOu_55nijM-29" style="edgeStyle=orthogonalEdgeStyle;rounded=0;orthogonalLoop=1;jettySize=auto;html=1;exitX=0.5;exitY=1;exitDx=0;exitDy=0;entryX=0.5;entryY=0;entryDx=0;entryDy=0;strokeWidth=2;fontSize=12;fontStyle=0;fontColor=#000000;" edge="1" parent="WIyWlLk6GJQsqaUBKTNV-1" source="HmHGwsYT_dBOu_55nijM-27" target="HmHGwsYT_dBOu_55nijM-4">
          <mxGeometry relative="1" as="geometry" />
        </mxCell>
        <mxCell id="HmHGwsYT_dBOu_55nijM-27" value="Перевод в шестнадцатеричную систему" style="shape=process;whiteSpace=wrap;html=1;backgroundOutline=1;strokeWidth=2;fontSize=12;fontStyle=0;fontColor=#000000;" vertex="1" parent="WIyWlLk6GJQsqaUBKTNV-1">
          <mxGeometry x="320" y="470" width="160" height="60" as="geometry" />
        </mxCell>
        <mxCell id="HmHGwsYT_dBOu_55nijM-34" style="edgeStyle=orthogonalEdgeStyle;rounded=0;orthogonalLoop=1;jettySize=auto;html=1;exitX=0.5;exitY=1;exitDx=0;exitDy=0;entryX=0.5;entryY=0;entryDx=0;entryDy=0;strokeWidth=2;fontSize=12;fontStyle=0;fontColor=#000000;" edge="1" parent="WIyWlLk6GJQsqaUBKTNV-1" source="HmHGwsYT_dBOu_55nijM-32" target="HmHGwsYT_dBOu_55nijM-11">
          <mxGeometry relative="1" as="geometry" />
        </mxCell>
        <mxCell id="HmHGwsYT_dBOu_55nijM-32" value="Перевод в десятичную систему" style="shape=process;whiteSpace=wrap;html=1;backgroundOutline=1;strokeWidth=2;fontSize=12;fontStyle=0;fontColor=#000000;" vertex="1" parent="WIyWlLk6GJQsqaUBKTNV-1">
          <mxGeometry x="340" y="710" width="120" height="60" as="geometry" />
        </mxCell>
        <mxCell id="HmHGwsYT_dBOu_55nijM-37" style="edgeStyle=orthogonalEdgeStyle;rounded=0;orthogonalLoop=1;jettySize=auto;html=1;exitX=0.5;exitY=1;exitDx=0;exitDy=0;entryX=0.5;entryY=0;entryDx=0;entryDy=0;strokeWidth=2;fontSize=12;fontStyle=0;fontColor=#000000;" edge="1" parent="WIyWlLk6GJQsqaUBKTNV-1" source="HmHGwsYT_dBOu_55nijM-35" target="HmHGwsYT_dBOu_55nijM-3">
          <mxGeometry relative="1" as="geometry" />
        </mxCell>
        <mxCell id="HmHGwsYT_dBOu_55nijM-39" style="edgeStyle=orthogonalEdgeStyle;rounded=0;orthogonalLoop=1;jettySize=auto;html=1;exitX=0;exitY=0.5;exitDx=0;exitDy=0;entryX=0.5;entryY=0;entryDx=0;entryDy=0;strokeWidth=2;fontSize=12;fontStyle=0;fontColor=#000000;" edge="1" parent="WIyWlLk6GJQsqaUBKTNV-1" source="HmHGwsYT_dBOu_55nijM-35" target="HmHGwsYT_dBOu_55nijM-6">
          <mxGeometry relative="1" as="geometry" />
        </mxCell>
        <mxCell id="HmHGwsYT_dBOu_55nijM-35" value="Проверка правильности вводимых символов" style="rhombus;whiteSpace=wrap;html=1;strokeWidth=2;fontSize=12;fontStyle=0;fontColor=#000000;" vertex="1" parent="WIyWlLk6GJQsqaUBKTNV-1">
          <mxGeometry x="325" y="290" width="150" height="80" as="geometry" />
        </mxCell>
      </root>
    </mxGraphModel>
  </diagram>
</mxfile>
